<svg width="26" height="25" viewBox="0 0 26 25" fill="none" xmlns="http://www.w3.org/2000/svg">
<path d="M25.9657 6.9577C25.9657 6.9577 20.1842 0.446041 13.088 5.77357C13.088 5.77357 8.42425 8.47588 10.1266 16.949H7.82469C6.83606 16.9405 5.86623 17.2192 5.03301 17.7514C4.19979 18.2836 3.53903 19.0462 3.13099 19.9468C2.68346 20.9682 2.36441 22.3022 2.36441 24.0709C2.36441 24.0709 -0.205136 22.7433 0.0796549 19.0967C0.336609 15.8847 2.88046 13.3323 6.09667 13.2253H6.2123C6.2123 13.2253 5.36221 2.07128 17.6853 0.137695L22.1242 1.3154L25.6766 4.46096L25.9657 6.9577Z" fill="url(#paint0_linear_6106_29848)"/>
<defs>
<linearGradient id="paint0_linear_6106_29848" x1="0.0775139" y1="17.874" x2="25.8287" y2="0.486752" gradientUnits="userSpaceOnUse">
<stop stop-color="#F5E648"/>
<stop offset="0.32" stop-color="#EFA035"/>
<stop offset="0.62" stop-color="#EA6225"/>
<stop offset="1" stop-color="#CE1543"/>
</linearGradient>
</defs>
</svg>
